<?xml version="1.0"?>
<svg xmlns="http://www.w3.org/2000/svg" height="512px" viewBox="0 0 64 64" width="512px" class=""><g><g id="Contact-3" data-name="Contact"><path d="m43 3c9.94 0 18 6.27 18 14s-8.06 14-18 14c-.32 0-.63-.02-.95-.04l-8.05 6.04 1.61-7.24c-6.25-2.2-10.61-7.08-10.61-12.76 0-7.73 8.06-14 18-14z" fill="#00ccb3" data-original="#00CCB3" class="" style="fill:#E1583A" data-old_color="#00ccb3"/><path d="m17 58 7-7v-2.91l2.58.7a6.013 6.013 0 0 1 4.42 5.79v6.42h-28v-6.42a6.013 6.013 0 0 1 4.42-5.79l2.58-.7v2.91z" fill="#5aaae7" data-original="#5AAAE7"/><path d="m24 48.09v2.91l-7 7-7-7v-2.91l1.44-.39 1.2-.33 4.36 3.63 4.36-3.63 1.22.33z" fill="#e6e7e8" data-original="#E6E7E8" class=""/><path d="m21.36 47.37-4.36 3.63-4.36-3.63 1.16-.31.2-.06v-2.58a8.049 8.049 0 0 0 6 0v2.58l.21.06z" fill="#ffb655" data-original="#FFB655" class=""/><path d="m20 44.42a8 8 0 0 1 -11-7.42v-2h3.69a7.985 7.985 0 0 0 5.65-2.34l1.66-1.66.34.68a5.986 5.986 0 0 0 4.67 3.28l-.01.04v2a8.008 8.008 0 0 1 -5 7.42z" fill="#ffc477" data-original="#FFC477" class=""/><path d="m26 32v3h-.29a5.374 5.374 0 0 1 -.7-.04 5.986 5.986 0 0 1 -4.67-3.28l-.34-.68-1.66 1.66a7.985 7.985 0 0 1 -5.65 2.34h-4.69v-3a9 9 0 0 1 18 0z" fill="#8b5e3c" data-original="#8B5E3C"/><g fill="#009986"><path d="m32 16h22v2h-22z" data-original="#009986" class="active-path" style="fill:#DD482F" data-old_color="#009986"/><path d="m32 12h22v2h-22z" data-original="#009986" class="active-path" style="fill:#DD482F" data-old_color="#009986"/><path d="m32 20h22v2h-22z" data-original="#009986" class="active-path" style="fill:#DD482F" data-old_color="#009986"/></g><path d="m17 42a4 4 0 0 1 -4-4h2a2 2 0 0 0 4 0h2a4 4 0 0 1 -4 4z" fill="#ffa733" data-original="#FFA733" class=""/></g></g> </svg>
