<svg height="512pt" viewBox="0 0 512 512" width="512pt" xmlns="http://www.w3.org/2000/svg"><path d="m150 512h-150v-55c0-30.328125 24.671875-55 55-55h40c30.328125 0 55 24.671875 55 55zm0 0" fill="#ff7b01"/><path d="m512 512h-150v-55c0-30.328125 24.671875-55 55-55h40c30.328125 0 55 24.671875 55 55zm0 0" fill="#ff4f18"/><path d="m331 512h-150v-55c0-30.328125 24.671875-55 55-55h40c30.328125 0 55 24.671875 55 55zm0 0" fill="#6fc8f1"/><path d="m331 457c0-30.328125-24.671875-55-55-55h-20v110h75zm0 0" fill="#4bbaed"/><path d="m90 331h-30v-81h81v-48h30v78h-81zm0 0" fill="#388cb3"/><path d="m452 331h-30v-51h-81v-78h30v48h81zm0 0" fill="#265d77"/><path d="m241 202h30v129h-30zm0 0" fill="#388cb3"/><path d="m256 202h15v129h-15zm0 0" fill="#265d77"/><path d="m442 217h-372v-217h372zm0 0" fill="#b7e4f8"/><path d="m256 0h186v217h-186zm0 0" fill="#6fc8f1"/><path d="m256 150.125-186-126.175781v-23.949219h372v23.949219zm0 0" fill="#388cb3"/><path d="m256 432c-31.980469 0-58-26.019531-58-58s26.019531-58 58-58 58 26.019531 58 58-26.019531 58-58 58zm0 0" fill="#ffe565"/><path d="m75 432c-31.980469 0-58-26.019531-58-58s26.019531-58 58-58 58 26.019531 58 58-26.019531 58-58 58zm0 0" fill="#ffe565"/><path d="m437 432c-31.980469 0-58-26.019531-58-58s26.019531-58 58-58 58 26.019531 58 58-26.019531 58-58 58zm0 0" fill="#ffd400"/><path d="m256 150.125 186-126.175781v-23.949219h-186zm0 0" fill="#265d77"/><path d="m256 316v116c31.980469 0 58-26.019531 58-58s-26.019531-58-58-58zm0 0" fill="#ffd400"/></svg>