<?xml version="1.0" encoding="iso-8859-1"?>
<!-- Generator: Adobe Illustrator 19.0.0, SVG Export Plug-In . SVG Version: 6.00 Build 0)  -->
<svg version="1.1" id="Capa_1" xmlns="http://www.w3.org/2000/svg" xmlns:xlink="http://www.w3.org/1999/xlink" x="0px" y="0px"
	 viewBox="0 0 415.5 415.5" style="enable-background:new 0 0 415.5 415.5;" xml:space="preserve">
<circle style="fill:#FDC75B;" cx="367.75" cy="375.3" r="30"/>
<path style="fill:#ED664C;" d="M287.75,254.7h-80h-80h-34.2c-37.1,0-67.7-30-67.7-67.6c0-18.8,7.6-35.6,19.8-47.8
	c5.6-5.6,12.2-10.2,19.8-13.7c10.2-33.1,40.7-57.5,76.8-57.5c5.6,0,11.2,0.5,16.3,1.5c16.3-35.1,51.4-59.5,92.6-59.5
	c56.4,0,101.7,45.8,101.7,101.7c0,5.1-0.5,9.7-1,14.8c22.4,11.2,37.6,34.1,37.6,60.5c0,18.8-7.6,35.6-19.8,47.8
	c-12.2,12.2-29,19.8-47.8,19.8L287.75,254.7L287.75,254.7z"/>
<g>
	<circle style="fill:#FDC75B;" cx="207.75" cy="375.3" r="30"/>
	<circle style="fill:#FDC75B;" cx="47.75" cy="375.3" r="30"/>
</g>
<path d="M317.75,385.7h11.3c4.5,17,20.1,29.8,38.7,29.8c22.1,0,40-18,40-40.1s-17.9-39.8-40-39.8c-18.6,0-34.3,12.2-38.7,30.2h-11.3
	c-11,0-20-9.4-20-20.4v-80.7h24.2c20.7,0,40.2-8.1,54.9-22.8c14.7-14.7,22.8-34.2,22.8-54.9c0-27.2-14-51.9-37.1-66.1
	c0.3-3,0.4-6,0.4-9.2c0-61.6-50.1-111.7-111.7-111.7c-21.8,0-43,6.3-61.1,18.2c-15.5,10.2-28.2,24-37.1,40.3
	c-3.5-0.4-7-0.6-10.6-0.6c-19.7,0-38.4,6.4-54.2,18.4c-14,10.7-24.8,25.5-30.8,42c-7,3.7-13.3,8.4-18.7,13.8
	c-14.7,14.7-22.8,34.2-22.8,54.9c0,42.8,34.8,77.6,77.7,77.6h24.1v80.6c0,11-9,20.4-20,20.4h-11.3c-4.5-18-20.1-30.2-38.7-30.2
	c-22.1,0-40,17.8-40,39.9s17.9,40.2,40,40.2c18.6,0,34.3-12.8,38.7-29.8h11.3c22.1,0,40-18.3,40-40.4v-80.6h60v71.9
	c-17.2,4.5-30,20.1-30,38.7c0,22.1,17.9,40,40,40s40-17.9,40-40c0-18.6-12.8-34.3-30-38.7v-71.9h60v80.6
	C277.75,367.4,295.65,385.7,317.75,385.7z M367.75,355.3c11,0,20,9,20,20s-9,20-20,20s-20-9-20-20S356.75,355.3,367.75,355.3z
	 M47.75,395.3c-11,0-20-9-20-20s9-20,20-20s20,9,20,20S58.75,395.3,47.75,395.3z M227.75,375.3c0,11-9,20-20,20s-20-9-20-20
	s9-20,20-20S227.75,364.3,227.75,375.3z M35.95,187.1c0-15.4,6-29.8,16.9-40.7c4.7-4.7,10.5-8.7,17-11.7l4-1.9l1.3-4.2
	c9.1-29.7,36.8-50.4,67.2-50.4c5,0,10,0.5,14.3,1.3l7.7,1.6l3.3-7.1c7.4-15.8,18.9-29.2,33.4-38.8c14.9-9.8,32.2-15,50.1-15
	c50.6,0,91.7,41.1,91.7,91.7c0,4.2-0.4,8-0.8,12.5l-0.8,8.1l6.2,3.1c19.8,9.9,32.1,29.7,32.1,51.6c0,15.4-6,29.8-16.9,40.7
	c-10.9,10.8-25.4,16.8-40.7,16.8H93.55C61.75,244.7,35.95,218.9,35.95,187.1z"/>
<g>
</g>
<g>
</g>
<g>
</g>
<g>
</g>
<g>
</g>
<g>
</g>
<g>
</g>
<g>
</g>
<g>
</g>
<g>
</g>
<g>
</g>
<g>
</g>
<g>
</g>
<g>
</g>
<g>
</g>
</svg>
