<?xml version="1.0"?>
<svg xmlns="http://www.w3.org/2000/svg" id="Capa_1" enable-background="new 0 0 490.908 490.908" height="512px" viewBox="0 0 490.908 490.908" width="512px" class=""><g><path d="m232.214 490.908h-28.162l-7.5-10-7.5 10h-93.11l-7.5-10-7.5 10h-37.027c-8.73 0-15.808-7.077-15.808-15.808v-13.554c0-60.728 49.229-109.957 109.957-109.957 60.728 0 109.957 49.229 109.957 109.957v13.554c.001 8.73-7.077 15.808-15.807 15.808z" fill="#60b7ff" data-original="#60B7FF"/><path d="m138.065 351.589c-5.089 0-10.095.353-15 1.023 53.63 7.317 94.957 53.296 94.957 108.934v13.554c0 8.73-7.077 15.808-15.808 15.808h30c8.73 0 15.808-7.078 15.808-15.808v-13.554c0-60.728-49.23-109.957-109.957-109.957z" fill="#26a6fe" data-original="#26A6FE" class=""/><path d="m385.593 0c-49.706 0-90 40.294-90 90 0 18.247 5.436 35.222 14.768 49.405l-14.431 29.336c-1.913 7.138 4.619 13.67 11.757 11.757l29.59-14.556c13.959 8.899 30.534 14.058 48.316 14.058 49.706 0 90-40.294 90-90s-40.295-90-90-90z" fill="#0ed290" data-original="#0ED290" class="" style="fill:#E05739" data-old_color="#0ed290"/><path d="m385.593 0c-5.112 0-10.121.433-15 1.251 42.565 7.142 75 44.154 75 88.749 0 44.586-32.424 81.593-74.977 88.745 4.872.817 9.873 1.255 14.977 1.255 49.706 0 90-40.294 90-90s-40.295-90-90-90z" fill="#00c285" data-original="#00C285" class="active-path" style="fill:#DF4E34" data-old_color="#00c285"/><path d="m395.935 86.629c-6.523 5.1-6.642 8.658-6.642 14.826 0 2.254-1.186 4.863-6.998 4.863-4.863 0-6.523-1.779-6.523-7.947 0-10.2 4.507-15.063 7.947-18.028 3.914-3.321 10.556-6.998 10.556-13.403 0-5.456-4.745-8.065-10.675-8.065-12.098 0-9.489 9.133-15.893 9.133-3.202 0-7.116-2.135-7.116-6.76 0-6.405 7.354-15.893 23.366-15.893 15.182 0 25.263 8.421 25.263 19.57-.001 11.148-10.082 19.213-13.285 21.704zm-4.388 37.005c0 4.863-4.033 9.133-9.133 9.133s-9.014-4.27-9.014-9.133c0-4.981 4.033-9.132 9.014-9.132 4.982 0 9.133 4.151 9.133 9.132z" fill="#fff" data-original="#FFF" class=""/><path d="m382.414 133.142c-5.177 0-9.389-4.265-9.389-9.508 0-5.242 4.212-9.507 9.389-9.507 5.154 0 9.508 4.354 9.508 9.507 0 5.154-4.354 9.508-9.508 9.508zm0-18.265c-4.764 0-8.639 3.929-8.639 8.757 0 4.829 3.875 8.758 8.639 8.758 4.747 0 8.758-4.01 8.758-8.758 0-4.747-4.011-8.757-8.758-8.757zm-.118-8.184c-5.158 0-6.898-2.1-6.898-8.322 0-10.059 4.316-15.07 8.077-18.312.72-.611 1.519-1.225 2.365-1.874 3.778-2.901 8.061-6.189 8.061-11.245 0-5.67-5.321-7.69-10.3-7.69-6.804 0-8.775 2.908-10.515 5.473-1.276 1.882-2.482 3.66-5.378 3.66-3.631 0-7.491-2.501-7.491-7.135 0-6.561 7.545-16.268 23.741-16.268 15.095 0 25.638 8.202 25.638 19.945 0 7.669-4.518 15.071-13.429 22.001-6.497 5.08-6.497 8.637-6.497 14.53-.002 2.388-1.281 5.237-7.374 5.237zm1.304-48.193c6.816 0 11.05 3.234 11.05 8.44 0 5.425-4.632 8.982-8.354 11.84-.838.644-1.629 1.251-2.334 1.849-3.637 3.135-7.814 7.988-7.814 17.742 0 5.873 1.379 7.572 6.148 7.572 4.395 0 6.623-1.51 6.623-4.488 0-5.911 0-9.816 6.786-15.121l.001-.001c8.718-6.781 13.139-13.984 13.139-21.409 0-11.302-10.234-19.195-24.888-19.195-15.684 0-22.991 9.26-22.991 15.518 0 4.147 3.473 6.385 6.741 6.385 2.499 0 3.496-1.47 4.758-3.331 1.752-2.584 3.934-5.801 11.135-5.801z" fill="#fff" data-original="#FFF" class=""/><path d="m95.941 490.908v-22.018c0-4.142-3.358-7.5-7.5-7.5s-7.5 3.358-7.5 7.5v22.018z" fill="#26a6fe" data-original="#26A6FE" class=""/><path d="m204.052 490.908v-22.018c0-4.142-3.358-7.5-7.5-7.5s-7.5 3.358-7.5 7.5v22.018z" fill="#26a6fe" data-original="#26A6FE" class=""/><g fill="#fed2a4"><ellipse cx="231.015" cy="231.822" rx="30.312" ry="30.312" transform="matrix(.914 -.407 .407 .914 -74.346 114.076)" data-original="#FED2A4"/><ellipse cx="45.627" cy="231.822" rx="30.312" ry="30.312" transform="matrix(.926 -.377 .377 .926 -83.959 34.26)" data-original="#FED2A4"/><path d="m45.627 172.896c-.177 1.811-8.855 18.015-8.855 18.015l-.199 53.089c0 48.29 34.343 88.555 79.937 97.712v19.295c0 11.88 9.631 21.511 21.511 21.511s21.511-9.631 21.511-21.511v-20.081c38.04-9.107 67.606-40.021 74.734-78.791 1.081-5.88 2.097-60.153 2.097-60.153l-.252-11.071s-28.275-29.723-28.478-31.799z" data-original="#FED2A4"/></g><path d="m216.335 169.646h-11.367c1.736 9.575 1.142 21.265 1.142 21.265l.252 11.071s-1.016 54.272-2.097 60.153c-7.128 38.77-36.693 69.684-74.734 78.791v20.081c0 6.042-2.499 11.494-6.511 15.401 3.876 3.775 9.162 6.109 15 6.109 11.88 0 21.511-9.631 21.511-21.511v-20.081c38.04-9.107 67.606-40.021 74.734-78.791 1.081-5.88 2.097-60.153 2.097-60.153l-.252-11.071c0 .002-11.4-11.982-19.775-21.264z" fill="#ffbd86" data-original="#FFBD86"/><path d="m236.11 190.912.054-7.88c0-55.046-44.623-99.669-99.669-99.669-55.046 0-99.669 44.623-99.669 99.669l-.054 7.88 4.919-2.686c21.182-11.564 46.253-13.678 69.072-5.823 15.779 5.431 33.097 4.124 47.882-3.613 23.981-12.549 53.207-9.081 73.585 8.731z" fill="#596c76" data-original="#596C76"/><path d="m136.495 83.363c-5.099 0-10.107.385-15 1.123 44.832 6.767 79.87 43.398 84.21 88.982 9.612 2.519 18.72 7.23 26.527 14.054l3.878 3.39.054-7.88c0-55.046-44.623-99.669-99.669-99.669z" fill="#465a61" data-original="#465A61" class=""/><path d="m89.142 264.581c-4.142 0-7.5-3.358-7.5-7.5v-7.139c0-4.142 3.358-7.5 7.5-7.5s7.5 3.358 7.5 7.5v7.139c0 4.142-3.358 7.5-7.5 7.5z" fill="#3e5959" data-original="#3E5959" class=""/><path d="m179.238 264.581c-4.142 0-7.5-3.358-7.5-7.5v-7.139c0-4.142 3.358-7.5 7.5-7.5s7.5 3.358 7.5 7.5v7.139c0 4.142-3.358 7.5-7.5 7.5z" fill="#3e5959" data-original="#3E5959" class=""/><path d="m125.248 297.121c-1.23 0-2.477-.303-3.628-.941-3.623-2.008-4.933-6.572-2.925-10.195 3.582-6.465 10.396-10.48 17.781-10.48 7.365 0 14.169 3.999 17.757 10.437 2.017 3.618.718 8.186-2.9 10.202-3.619 2.016-8.186.718-10.202-2.9-.941-1.689-2.725-2.739-4.654-2.739-1.935 0-3.721 1.054-4.661 2.751-1.37 2.47-3.93 3.865-6.568 3.865z" fill="#ffbd86" data-original="#FFBD86"/><path d="m74.95 219.892c-2.474 0-4.895-1.223-6.327-3.461-2.231-3.49-1.211-8.128 2.28-10.359 8.342-5.333 18.743-6.174 27.823-2.252 3.802 1.643 5.553 6.057 3.91 9.86-1.642 3.802-6.056 5.553-9.859 3.91-4.499-1.944-9.656-1.525-13.795 1.12-1.25.8-2.649 1.182-4.032 1.182z" fill="#596c76" data-original="#596C76"/><path d="m193.857 234.588c-7.659 0-15.097-2.957-20.707-8.405-2.971-2.886-3.04-7.634-.154-10.605 2.886-2.972 7.635-3.04 10.605-.155 3.516 3.415 8.485 4.854 13.294 3.851 4.054-.843 8.028 1.754 8.874 5.809.847 4.055-1.754 8.028-5.809 8.874-2.03.423-4.075.631-6.103.631z" fill="#596c76" data-original="#596C76"/></g> </svg>
