<?xml version="1.0"?>
<svg xmlns="http://www.w3.org/2000/svg" height="512px" viewBox="1 -17 511.99926 511" width="512px" class=""><g><path d="m504.035156 4.523438c-5.019531-3.777344-11.519531-4.980469-17.554687-3.246094-23.167969 6.652344-52.695313 4.773437-90.078125 2.398437-23.40625-1.488281-49.933594-3.175781-80.402344-3.175781-23.875 0-45.328125 10.527344-60 27.167969-14.671875-16.640625-36.121094-27.167969-60-27.167969-30.464844 0-56.996094 1.6875-80.402344 3.175781-37.382812 2.378907-66.910156 4.257813-90.078125-2.398437-6.035156-1.734375-12.535156-.53125-17.550781 3.246094-5.019531 3.78125-7.96875 9.695312-7.96875 15.976562v331.796875c-.0546875 21.40625 8.242188 41.542969 23.359375 56.699219s35.234375 23.503906 56.640625 23.503906h145c11.046875 0 20-8.953125 20-20s-8.953125-20-20-20h-145c-10.703125 0-20.761719-4.171875-28.320312-11.75-7.558594-7.578125-11.707032-17.648438-11.679688-28.402344v-10.609375c11.777344 6.828125 25.433594 10.761719 40 10.761719h149c4.445312 0 7.488281 2.761719 8.855469 5.34375 3.589843 6.777344 10.519531 10.644531 17.691406 10.644531 3.15625 0 6.359375-.746093 9.339844-2.328125 6.023437-3.1875 9.738281-9.015625 10.492187-15.300781.390625-1.558594.621094-3.179687.621094-4.859375v-265.5c0-22.054688 17.941406-40 40-40 29.195312 0 55.050781 1.644531 77.863281 3.09375 29.832031 1.898438 55.132813 3.507812 78.136719 1.011719v143.894531c0 11.046875 8.953125 20 20 20s20-8.953125 20-20v-168c0-6.28125-2.949219-12.195312-7.964844-15.976562zm-424.035156 307.976562c-22.054688 0-40-17.945312-40-40v-227.894531c23.003906 2.496093 48.300781.886719 78.132812-1.011719 22.816407-1.449219 48.671876-3.09375 77.867188-3.09375 22.054688 0 40 17.945312 40 40v232.492188c-2.296875-.324219-4.632812-.492188-7-.492188zm122-199c0 11.046875-8.953125 20-20 20h-87c-11.046875 0-20-8.953125-20-20s8.953125-20 20-20h87c11.046875 0 20 8.953125 20 20zm-30 80c0 11.046875-8.953125 20-20 20h-57c-11.046875 0-20-8.953125-20-20s8.953125-20 20-20h57c11.046875 0 20 8.953125 20 20zm237.589844 61.558594-109.800782 109.558594c-2.332031 2.328124-4.054687 5.195312-5.011718 8.347656l-23.914063 78.722656c-2.117187 6.980469-.269531 14.5625 4.820313 19.78125 3.816406 3.910156 9 6.035156 14.320312 6.035156 1.777344 0 3.574219-.238281 5.335938-.730468l80.726562-22.359376c3.320313-.921874 6.347656-2.683593 8.789063-5.121093l109.574219-109.363281c23.390624-23.394532 23.390624-61.460938 0-84.855469-23.394532-23.394531-61.460938-23.394531-84.839844-.015625zm-49.273438 162.207031-40.609375 11.25 11.882813-39.125 74.089844-73.925781 28.289062 28.289062zm105.839844-105.636719-3.875 3.867188-28.285156-28.285156 3.863281-3.851563c7.796875-7.800781 20.484375-7.800781 28.28125 0 7.800781 7.796875 7.800781 20.484375.015625 28.269531zm0 0" data-original="#000000" class="active-path" data-old_color="#000000" fill="#FFFFFF"/></g> </svg>
