<svg height="682pt" viewBox="-21 -21 682.66669 682" width="682pt" xmlns="http://www.w3.org/2000/svg"><path d="m621.25 602.832031h-63.789062v-377.613281l-281.074219-115.535156v37.34375l-.003907.003906v455.800781h-38.003906v-436.148437l-121.316406 62.746094c-21.128906 10.925781-34.257812 32.503906-34.257812 56.308593v24.917969h80.539062c10.359375 0 18.75 8.390625 18.75 18.75 0 10.355469-8.390625 18.75-18.75 18.75h-80.539062v32.3125h80.539062c10.359375 0 18.75 8.394531 18.75 18.75 0 10.351562-8.390625 18.75-18.75 18.75h-80.539062v31.328125h80.539062c10.359375 0 18.75 8.394531 18.75 18.75 0 10.351563-8.390625 18.75-18.75 18.75h-80.539062v116.035156h-64.054688c-10.355469 0-18.75 8.394531-18.75 18.75s8.394531 18.75 18.75 18.75h602.5c10.355469 0 18.75-8.394531 18.75-18.75s-8.394531-18.75-18.75-18.75zm-476.65625 0v-59.644531c0-10.355469 8.394531-18.75 18.75-18.75 10.359375 0 18.75 8.394531 18.75 18.75v59.644531zm328.867188-134.785156c0 10.347656-8.398438 18.75-18.75 18.75-10.351563 0-18.75-8.402344-18.75-18.75v-38.011719c0-10.367187 8.398437-18.75 18.75-18.75 10.351562 0 18.75 8.382813 18.75 18.75zm-37.621094-238.925781c0-10.359375 8.398437-18.75 18.75-18.75 10.347656 0 18.75 8.390625 18.75 18.75v38c0 10.363281-8.402344 18.75-18.75 18.75-10.351563 0-18.75-8.386719-18.75-18.75zm-.128906 100.289062c0-10.367187 8.398437-18.75 18.75-18.75 10.351562 0 18.75 8.382813 18.75 18.75v37.996094c0 10.363281-8.398438 18.75-18.75 18.75-10.351563 0-18.75-8.386719-18.75-18.75zm-75.199219-100.289062c0-10.359375 8.390625-18.75 18.75-18.75 10.351562 0 18.75 8.390625 18.75 18.75v38c0 10.363281-8.398438 18.75-18.75 18.75-10.359375 0-18.75-8.386719-18.75-18.75zm37.628906 200.914062v38.011719c0 10.347656-8.40625 18.75-18.75 18.75-10.367187 0-18.75-8.402344-18.75-18.75v-38.011719c0-10.367187 8.382813-18.75 18.75-18.75 10.34375 0 18.75 8.382813 18.75 18.75zm-37.765625-100.625c0-10.367187 8.398438-18.75 18.75-18.75 10.363281 0 18.75 8.382813 18.75 18.75v37.996094c0 10.363281-8.386719 18.75-18.75 18.75-10.351562 0-18.75-8.386719-18.75-18.75zm.296875 273.421875v-59.636719c0-10.363281 8.390625-18.75 18.75-18.75 10.351563 0 18.75 8.386719 18.75 18.75v59.636719zm75 0v-59.636719c0-10.363281 8.390625-18.75 18.75-18.75 10.351563 0 18.75 8.386719 18.75 18.75v59.636719zm0 0"/><path d="m270.722656 66.820312c-9.570312-3.933593-20.523437.640626-24.457031 10.214844-3.941406 9.578125.632813 20.539063 10.210937 24.464844l19.910157 8.1875v-40.542969zm0 0"/><path d="m576.875 233.199219c2.339844.960937 4.75 1.410156 7.125 1.410156 7.375 0 14.363281-4.390625 17.347656-11.625 3.941406-9.574219-.636718-20.539063-10.210937-24.472656l-33.675781-13.839844v40.546875zm0 0"/><path d="m557.460938 160.140625 19.414062 7.980469c2.335938.957031 4.746094 1.410156 7.117188 1.410156 7.378906 0 14.375-4.378906 17.355468-11.625 3.933594-9.574219-.640625-20.53125-10.214844-24.46875l-320.40625-131.695312c-9.574218-3.929688-20.53125.636718-24.46875 10.214843-3.933593 9.578125.636719 20.535157 10.21875 24.46875l19.910157 8.1875v24.53125l281.074219 115.527344zm0 0"/></svg>