<svg height="512pt" viewBox="0 0 512 512" width="512pt" xmlns="http://www.w3.org/2000/svg"><path d="m437.019531 74.980469c-23.878906-23.878907-51.757812-42.53125-82.871093-55.449219-31.109376-12.910156-64.007813-19.4804688-97.769532-19.53125h-.378906c-68.378906 0-142.429688 30-191.71875 86.351562-41.453125 46.71875-64.28125 106.96875-64.28125 169.648438 0 44.949219 11.691406 88.898438 33.851562 127.410156l-18.800781 75.070313c-2.660156 10.660156.277344 21.78125 7.910157 29.769531 10.148437 10.578125 22.019531 10.578125 30.308593 8.648438l80.128907-16.039063c37.292968 20.378906 79.589843 31.140625 122.601562 31.140625 62.699219 0 122.949219-22.828125 169.648438-64.269531 63.089843-61.378907 86.351562-123.339844 86.351562-191.730469 0-68.378906-26.628906-132.660156-74.980469-181.019531zm-65.300781 152.488281h-39.046875l-15.59375 55.710938h36.640625c8.292969 0 15 6.71875 15 15s-6.707031 15-15 15h-45.039062l-15.039063 53.71875c-1.859375 6.632812-8.730469 12.773437-18.492187 10.402343-7.976563-2.230469-12.636719-10.511719-10.398438-18.480469l12.769531-45.640624h-78.789062l-15.089844 53.898437c-1.859375 6.632813-9.429687 12.59375-18.492187 10.402344-7.976563-2.230469-12.636719-10.511719-10.398438-18.480469l12.820312-45.820312h-28.140624c-8.289063 0-15-6.71875-15-15s6.710937-15 15-15h36.539062l15.601562-55.710938h-34.140624c-8.289063 0-15-6.707031-15-15 0-8.277344 6.710937-15 15-15h42.539062l14.78125-52.769531c2.230469-7.980469 10.511719-12.640625 18.480469-10.398438 7.980469 2.230469 12.640625 10.507813 10.410156 18.480469l-12.519531 44.6875h78.800781l14.828125-52.949219c2.230469-7.980469 10.511719-12.640625 18.480469-10.398437 7.980469 2.230468 12.640625 10.507812 10.410156 18.480468l-12.570313 44.867188h30.648438c8.292969 0 15 6.722656 15 15 0 8.292969-6.707031 15-15 15zm-164.589844 55.710938h78.792969l15.597656-55.710938h-78.800781zm0 0"/></svg>