<svg height="512pt" viewBox="0 0 512.00043 512" width="512pt" xmlns="http://www.w3.org/2000/svg"><path d="m354.324219 379.113281h.007812l65.660157-43.417969c27.019531-17.53125 63.269531-10.832031 82.007812 15.148438l-207.355469 151.085938-179.996093-30h-104.648438v-119.996094h106.757812l13.441407-11.589844c33.988281-29.46875 84.917969-29.46875 118.90625 0l7.050781 6.109375c5.46875 4.75 12.519531 7.480469 19.808594 7.480469h48.679687c15.097657 0 27.589844 10.890625 29.679688 25.179687zm0 0" fill="#fed2a4"/><path d="m375.460938 100-59.996094-90-60 90-90-60 29.53125 155.9375v40h239.996094v-40l30.46875-155.9375zm0 0" fill="#ffda2d"/><g fill="#020202"><path d="m414.476562 327.351562-55.125 36.457032c-6.972656-11.929688-20.089843-19.875-34.707031-19.875h-48.679687c-10.480469 0-15.390625-7.609375-20.308594-11.144532-37.628906-32.625-94.378906-32.625-131.988281-.019531l-10.628907 9.164063h-103.039062c-5.523438 0-10 4.476562-10 10v119.996094c0 5.523437 4.476562 10 10 10h103.820312l179.179688 29.863281c2.640625.441406 5.355469-.195313 7.53125-1.78125l207.359375-151.085938c4.445313-3.242187 5.4375-9.46875 2.21875-13.933593-21.953125-30.4375-63.929687-38.207032-95.632813-17.640626zm-122.328124 164.023438-175.855469-29.308594c-.542969-.089844-1.09375-.136718-1.644531-.136718h-94.648438v-99.996094h96.757812c6.066407 0 7.792969-4.304688 19.992188-14.035156 30.15625-26.148438 75.644531-26.148438 105.804688.003906 4.199218 2.828125 14.023437 16.03125 33.410156 16.03125h48.679687c10.855469 0 20 8.59375 20 19.449218 0 10.78125-8.972656 19.550782-20 19.550782h-120c-5.519531 0-10 4.476562-10 10 0 5.519531 4.480469 10 10 10h120c21.746094 0 39.5-17.253906 39.988281-38.644532l60.800782-40.207031c19.804687-12.847656 45.242187-10.25 61.835937 5.121094zm0 0"/><path d="m325.992188 195.9375c0 5.523438-4.476563 10-10 10-5.519532 0-10-4.476562-10-10s4.480468-10 10-10c5.523437 0 10 4.476562 10 10zm0 0"/><path d="m194.996094 245.933594h239.996094c5.523437 0 10-4.476563 10-9.996094v-39.03125l30.285156-154.988281c.773437-3.960938-.910156-8-4.269532-10.238281-3.359374-2.238282-7.734374-2.238282-11.09375 0l-81.679687 54.453124-54.449219-81.679687c-1.855468-2.78125-4.976562-4.453125-8.320312-4.453125s-6.464844 1.671875-8.320313 4.453125l-54.453125 81.675781-81.675781-54.449218c-3.351563-2.234376-7.710937-2.242188-11.070313-.019532-3.355468 2.222656-5.050781 6.242188-4.300781 10.199219l29.351563 155.015625v39.0625c0 5.519531 4.476562 9.996094 10 9.996094zm54.921875-137.613282c4.597656 3.0625 10.804687 1.820313 13.867187-2.773437l51.679688-77.519531 51.679687 77.519531c3.0625 4.59375 9.269531 5.835937 13.863281 2.773437l70.039063-46.691406-24.289063 124.308594h-65.765624c-5.523438 0-10 4.476562-10 10s4.476562 10 10 10h64v20h-219.996094v-20h66c5.523437 0 10-4.476562 10-10s-4.476563-10-10-10h-67.714844l-23.5625-124.417969zm0 0"/></g></svg>