<?xml version="1.0"?>
<svg xmlns="http://www.w3.org/2000/svg" xmlns:xlink="http://www.w3.org/1999/xlink" version="1.1" id="Capa_1" x="0px" y="0px" width="512px" height="512px" viewBox="0 0 184.865 184.865" style="enable-background:new 0 0 184.865 184.865;" xml:space="preserve" class=""><g><g>
	<path d="M119.846,46.609c-11.532-11.402-30.208-11.298-41.622,0.237c-11.399,11.536-11.298,30.212,0.234,41.623   c0.238,0.228,0.487,0.429,0.837,0.679c0.584,0.536,1.339,0.828,2.119,0.828c0.307,0,0.606-0.043,0.904-0.131   c1.059-0.316,1.873-1.172,2.134-2.25c2.049-8.479,6.345-16.206,12.4-22.335c6.077-6.135,13.737-10.513,22.213-12.666   c1.072-0.268,1.895-1.139,2.198-2.208c0.305-1.065-0.012-2.262-0.785-3.06C120.371,47.215,119.957,46.715,119.846,46.609z    M92.421,60.876c-5.538,5.586-9.746,12.339-12.398,19.765c-6.153-8.984-5.285-21.391,2.652-29.41   c7.925-8.014,20.28-9.037,29.353-2.975C104.636,50.987,97.932,55.289,92.421,60.876z M168.84,60.453   c-9.292-9.197-21.531-14.647-34.605-15.457c-1.674-2.618-3.592-5.015-5.729-7.127c-7.928-7.831-18.535-12.364-29.581-12.042   c-11.161,0.064-21.61,4.454-29.444,12.364c-16.173,16.367-16.023,42.843,0.338,59.028c2.125,2.101,4.546,4.001,7.188,5.639   c0.131,1.833,0.487,3.635,0.81,5.443l-30.285,0.085l-0.061-22.867c-0.006-1.714-1.41-3.112-3.118-3.112h-0.006l-25.054,0.061   c-0.828,0-1.629,0.332-2.208,0.916c-0.587,0.588-0.91,1.379-0.91,2.211l0.037,13.115L3.105,98.753   c-1.714,0.006-3.118,1.4-3.105,3.124l0.1,37.856c0,0.822,0.338,1.625,0.911,2.21c0.587,0.579,1.379,0.907,2.208,0.907l0,0   l13.119-0.03l0.037,13.122c0.015,1.705,1.404,3.111,3.118,3.111h0.015l25.051-0.072c0.831,0,1.623-0.329,2.208-0.908   c0.587-0.578,0.91-1.376,0.91-2.21l-0.061-22.871l46.232-0.115l0.061,22.87c0,1.711,1.4,3.112,3.118,3.112l0,0l25.062-0.067   c0.828,0,1.62-0.341,2.204-0.92c0.597-0.584,0.914-1.375,0.914-2.203l-0.007-3.076c1.931,0.207,3.854,0.354,5.779,0.354   c14.357,0,28.046-5.669,38.325-16.051C190.225,115.681,190.03,81.39,168.84,60.453z M6.335,136.604l-0.094-31.621l9.996-0.036   l0.088,31.633L6.335,136.604z M22.603,152.8l-0.18-64.097l18.824-0.049l0.174,64.091L22.603,152.8z M47.583,126.733l-0.04-12.104   l46.235-0.129l0.03,12.118L47.583,126.733z M100.118,152.587l-0.177-64.094l18.822-0.046l0.176,64.098L100.118,152.587z    M125.035,104.648l10.005-0.019l0.091,31.634l-9.998,0.018L125.035,104.648z M164.833,132.488   c-10.461,10.57-24.905,15.6-39.677,13.853l-0.013-3.812l13.104-0.024c0.828,0,1.619-0.329,2.21-0.92   c0.585-0.585,0.907-1.376,0.907-2.204l-0.098-37.868c-0.006-1.705-1.4-3.112-3.117-3.112h-0.006l-13.123,0.025l-0.036-13.107   c0-1.714-1.4-3.111-3.117-3.111l0,0L96.811,82.27c-0.834,0-1.625,0.329-2.21,0.917c-0.585,0.584-0.907,1.379-0.907,2.208   l0.061,22.865l-9.715,0.023c-0.466-2.423-0.816-4.901-0.911-7.386c-0.048-1.071-0.648-2.046-1.571-2.575   c-2.762-1.571-5.243-3.441-7.368-5.545c-13.919-13.768-14.044-36.285-0.283-50.208c6.649-6.729,15.54-10.461,25.036-10.519   c0.079,0,0.128,0,0.207,0c9.42,0,18.273,3.635,24.959,10.239c2.138,2.113,4.031,4.57,5.614,7.295   c0.536,0.929,1.522,1.517,2.594,1.553c12.13,0.375,23.535,5.252,32.114,13.731C183.198,83.418,183.375,113.739,164.833,132.488z" data-original="#000000" class="active-path" data-old_color="#000000" fill="#FFFFFF"/>
</g></g> </svg>
